<svg width="40" height="40" viewBox="0 0 40 40" fill="none" xmlns="http://www.w3.org/2000/svg">
  <!-- Graduation cap -->
  <path d="M20 4L4 12L20 20L36 12L20 4Z" fill="#3B82F6" stroke="#1E40AF" stroke-width="1.5" stroke-linejoin="round"/>
  <path d="M8 14V22C8 24 12 28 20 28C28 28 32 24 32 22V14" stroke="#1E40AF" stroke-width="1.5" stroke-linecap="round" stroke-linejoin="round"/>
  
  <!-- AI brain pattern -->
  <circle cx="20" cy="16" r="3" fill="#DBEAFE" stroke="#3B82F6" stroke-width="1"/>
  <path d="M20 13L20 10M20 22L20 19M17 16L14 16M26 16L23 16" stroke="#3B82F6" stroke-width="1.5" stroke-linecap="round"/>
  
  <!-- Sparkle effects -->
  <circle cx="10" cy="8" r="1.5" fill="#FCD34D"/>
  <circle cx="30" cy="8" r="1.5" fill="#FCD34D"/>
  <path d="M35 18L36 18M35 20L36 20M34 19L37 19" stroke="#FCD34D" stroke-width="1" stroke-linecap="round"/>
</svg>

